<svg xmlns:xlink="http://www.w3.org/1999/xlink" xmlns="http://www.w3.org/2000/svg" viewBox="151.23059405940595 241.682056 573.9617821782178 202.39384" version="1.1" style="max-height: 500px" width="573.9617821782178" height="202.39384">
<defs fill="#ffffff">
<clipPath id="clip_0" fill="#ffffff">
<path data-index="0" d="M0 595.276H841.89V0H0Z" transform="matrix(1,0,0,-1,0,595.276)" fill="#ffffff"/>
</clipPath>
</defs>
<g>
<g clip-path="url(#clip_0)">
<path data-index="1" fill="#ffffff" d="M0 0C-.451 .448-.675 1.067-.675 1.854V114.79C-.675 115.576-.451 116.195 0 116.645 .447 117.094 1.066 117.319 1.853 117.319H28.486C29.271 117.319 29.891 117.094 30.34 116.645 30.789 116.195 31.016 115.576 31.016 114.79V74.504C31.016 74.167 31.126 73.941 31.353 73.831 31.576 73.718 31.8 73.831 32.025 74.167L61.355 115.802C62.03 116.813 63.097 117.319 64.559 117.319H94.731C96.08 117.319 96.754 116.813 96.754 115.802 96.754 115.353 96.586 114.847 96.249 114.286L61.188 65.57C60.962 65.233 60.962 64.838 61.188 64.391L97.429 2.36C97.766 1.91 97.935 1.404 97.935 .843 97.935-.168 97.202-.674 95.743-.674H65.907C64.445-.674 63.434-.113 62.873 1.012L39.611 42.478C39.498 42.815 39.33 42.983 39.105 42.983 38.879 42.983 38.655 42.815 38.432 42.478L31.353 31.69C31.126 31.238 31.016 30.902 31.016 30.679V1.854C31.016 1.067 30.789 .448 30.34 0 29.891-.45 29.271-.674 28.486-.674H1.853C1.066-.674 .447-.45 0 0" transform="matrix(1,0,0,-1,401.8763,363.7152)"/>
<path data-index="2" fill="#ffffff" d="M0 0C2.864 3.089 4.298 7.219 4.298 12.39V45.427C4.298 50.595 2.864 54.726 0 57.816-2.866 60.906-6.658 62.452-11.379 62.452-15.988 62.452-19.723 60.906-22.589 57.816-25.454 54.726-26.887 50.595-26.887 45.427V12.39C-26.887 7.219-25.454 3.089-22.589 0-19.723-3.092-15.988-4.636-11.379-4.636-6.658-4.636-2.866-3.092 0 0M-36.073-26.127C-43.211-22.363-48.745-17.082-52.677-10.282-56.611-3.485-58.576 4.409-58.576 13.4V45.09C-58.576 53.855-56.611 61.609-52.677 68.353-48.745 75.094-43.211 80.32-36.073 84.028-28.939 87.736-20.707 89.591-11.379 89.591-1.939 89.591 6.347 87.736 13.483 84.028 20.619 80.32 26.152 75.094 30.088 68.353 34.019 61.609 35.986 53.855 35.986 45.09V13.4C35.986 4.409 34.019-3.485 30.088-10.282 26.152-17.082 20.619-22.363 13.483-26.127 6.347-29.892-1.939-31.774-11.379-31.774-20.707-31.774-28.939-29.892-36.073-26.127" transform="matrix(1,0,0,-1,556.969,334.6381)"/>
<path data-index="3" fill="#ffffff" d="M0 0C.447 .449 1.066 .675 1.854 .675H28.486C29.271 .675 29.891 .449 30.341 0 30.789-.449 31.016-1.068 31.016-1.854V-114.79C31.016-115.577 30.789-116.196 30.341-116.645 29.891-117.095 29.271-117.318 28.486-117.318H3.034C1.686-117.318 .674-116.758 0-115.633L-34.387-58.321C-34.613-57.984-34.837-57.846-35.061-57.9-35.287-57.959-35.398-58.211-35.398-58.66L-35.061-114.79C-35.061-115.577-35.287-116.196-35.735-116.645-36.186-117.095-36.805-117.318-37.59-117.318H-64.223C-65.01-117.318-65.629-117.095-66.076-116.645-66.527-116.196-66.751-115.577-66.751-114.79V-1.854C-66.751-1.068-66.527-.449-66.076 0-65.629 .449-65.01 .675-64.223 .675H-38.77C-37.421 .675-36.409 .11-35.735-1.01L-1.518-58.321C-1.294-58.66-1.07-58.802-.843-58.743-.619-58.688-.506-58.435-.506-57.984L-.675-1.854C-.675-1.068-.451-.449 0 0" transform="matrix(1,0,0,-1,671.3362,247.07071)"/>
<path data-index="4" fill="#ffffff" d="M0 0-32.609-76.538H-77.436L-27.493 36.586C-26.363 39.146-23.845 40.815-21.045 40.859L19.824 41.492C22.652 41.536 25.241 39.914 26.436 37.352L79.49-76.538 49.333-76.525 63.317-144.505-6.216-33.407H20.199Z" transform="matrix(1,0,0,-1,294.1487,287.7836)"/>
<path data-index="5" fill="#ffffff" d="M0 0H-31.872C-32.437 0-32.715 .278-32.715 .843V88.325C-32.715 89.111-32.94 89.73-33.39 90.18-33.839 90.629-34.458 90.854-35.244 90.854H-61.877C-62.663 90.854-63.282 90.629-63.729 90.18-64.181 89.73-64.404 89.111-64.404 88.325V-24.61C-64.404-25.397-64.181-26.017-63.729-26.465-63.282-26.915-62.663-27.139-61.877-27.139H-12.022Z" transform="matrix(1,0,0,-1,222.7552,337.2504)"/>
<path data-index="6" fill="#ffffff" d="M0 0C-.45 .449-1.069 .675-1.854 .675H-28.487C-29.274 .675-29.894 .449-30.341 0-30.792-.449-31.016-1.068-31.016-1.854V-79.592L-13.242-117.318H-1.854C-1.069-117.318-.45-117.095 0-116.645 .448-116.196 .675-115.577 .675-114.79V-1.854C.675-1.068 .448-.449 0 0" transform="matrix(1,0,0,-1,392.7112,247.07071)"/>
<path data-index="7" fill="#ffffff" d="M0 0C.481 .435 .723 1.03 .723 1.79 .723 2.549 .481 3.145 0 3.578-.481 4.014-1.155 4.23-2.025 4.23H-5.464C-5.558 4.23-5.604 4.185-5.604 4.093V-.512C-5.604-.605-5.558-.651-5.464-.651H-1.997C-1.146-.651-.481-.436 0 0M-5.604 11.888V7.56C-5.604 7.468-5.558 7.422-5.464 7.422H-2.219C-1.349 7.422-.674 7.625-.192 8.031 .287 8.438 .527 8.992 .527 9.696 .527 10.417 .287 10.986-.192 11.402-.674 11.818-1.349 12.026-2.219 12.026H-5.464C-5.558 12.026-5.604 11.98-5.604 11.888M1.998 5.924C3.755 5.017 4.633 3.51 4.633 1.4 4.633-.393 4.023-1.747 2.803-2.662 1.582-3.578-.018-4.036-1.997-4.036H-9.182C-9.274-4.036-9.354-4.003-9.417-3.939-9.482-3.874-9.516-3.796-9.516-3.704V15.05C-9.516 15.143-9.482 15.222-9.417 15.285-9.354 15.351-9.274 15.384-9.182 15.384H-2.219C2.165 15.384 4.356 13.606 4.356 10.057 4.356 8.208 3.57 6.885 1.998 6.089 1.887 6.035 1.887 5.979 1.998 5.924" transform="matrix(1,0,0,-1,371.8636,388.7201)"/>
<path data-index="8" fill="#ffffff" d="M0 0H4.883C4.994 0 5.03 .056 4.994 .167L2.497 8.405C2.479 8.479 2.451 8.512 2.413 8.502 2.377 8.494 2.35 8.461 2.33 8.405L-.11 .167C-.13 .056-.092 0 0 0M6.825-5.854 5.993-3.134C5.955-3.061 5.909-3.024 5.854-3.024H-.972C-1.025-3.024-1.073-3.061-1.109-3.134L-1.915-5.854C-1.969-6.039-2.09-6.131-2.275-6.131H-5.798C-5.909-6.131-5.992-6.098-6.048-6.034-6.104-5.969-6.111-5.872-6.076-5.743L-.082 13.011C-.028 13.195 .093 13.289 .278 13.289H4.634C4.817 13.289 4.938 13.195 4.994 13.011L10.986-5.743C11.004-5.78 11.014-5.826 11.014-5.882 11.014-6.048 10.912-6.131 10.709-6.131H7.186C7-6.131 6.881-6.039 6.825-5.854" transform="matrix(1,0,0,-1,409.1761,386.6254)"/>
<path data-index="9" fill="#ffffff" d="M0 0C.063-.063 .097-.143 .097-.235V-2.954C.097-3.046 .063-3.124 0-3.189-.065-3.255-.145-3.286-.236-3.286H-5.202C-5.294-3.286-5.34-3.332-5.34-3.426V-18.989C-5.34-19.081-5.373-19.159-5.438-19.225-5.502-19.288-5.581-19.321-5.674-19.321H-8.92C-9.012-19.321-9.09-19.288-9.155-19.225-9.22-19.159-9.252-19.081-9.252-18.989V-3.426C-9.252-3.332-9.298-3.286-9.392-3.286H-14.218C-14.311-3.286-14.39-3.255-14.453-3.189-14.519-3.124-14.552-3.046-14.552-2.954V-.235C-14.552-.143-14.519-.063-14.453 0-14.39 .065-14.311 .099-14.218 .099H-.236C-.145 .099-.065 .065 0 0" transform="matrix(1,0,0,-1,459.4026,373.4349)"/>
<path data-index="10" fill="#ffffff" d="M0 0C.063-.063 .097-.143 .097-.235V-2.954C.097-3.046 .063-3.124 0-3.189-.065-3.255-.145-3.286-.236-3.286H-5.203C-5.295-3.286-5.341-3.332-5.341-3.426V-18.989C-5.341-19.081-5.373-19.159-5.438-19.225-5.503-19.288-5.581-19.321-5.675-19.321H-8.92C-9.012-19.321-9.091-19.288-9.156-19.225-9.22-19.159-9.253-19.081-9.253-18.989V-3.426C-9.253-3.332-9.299-3.286-9.392-3.286H-14.218C-14.311-3.286-14.39-3.255-14.453-3.189-14.519-3.124-14.552-3.046-14.552-2.954V-.235C-14.552-.143-14.519-.063-14.453 0-14.39 .065-14.311 .099-14.218 .099H-.236C-.145 .099-.065 .065 0 0" transform="matrix(1,0,0,-1,501.1555,373.4349)"/>
<path data-index="11" fill="#ffffff" d="M0 0C-.063-.065-.143-.097-.235-.097H-9.334C-9.428-.097-9.474-.143-9.474-.235V-4.536C-9.474-4.628-9.428-4.674-9.334-4.674H-3.37C-3.278-4.674-3.2-4.706-3.134-4.771-3.068-4.836-3.037-4.914-3.037-5.008V-7.698C-3.037-7.791-3.068-7.87-3.134-7.934-3.2-7.999-3.278-8.03-3.37-8.03H-9.334C-9.428-8.03-9.474-8.078-9.474-8.17V-12.663C-9.474-12.757-9.428-12.802-9.334-12.802H-.235C-.143-12.802-.063-12.835 0-12.898 .065-12.964 .099-13.043 .099-13.135V-15.827C.099-15.919 .065-15.997 0-16.062-.063-16.126-.143-16.159-.235-16.159H-13.051C-13.145-16.159-13.224-16.126-13.287-16.062-13.353-15.997-13.386-15.919-13.386-15.827V2.927C-13.386 3.02-13.353 3.099-13.287 3.162-13.224 3.228-13.145 3.261-13.051 3.261H-.235C-.143 3.261-.063 3.228 0 3.162 .065 3.099 .099 3.02 .099 2.927V.236C.099 .143 .065 .065 0 0" transform="matrix(1,0,0,-1,542.6555,376.597)"/>
<path data-index="12" fill="#ffffff" d="M0 0V-4.744C0-4.836 .046-4.882 .14-4.882H3.772C4.549-4.882 5.183-4.651 5.674-4.189 6.164-3.728 6.408-3.126 6.408-2.386 6.408-1.646 6.164-1.04 5.674-.568 5.183-.097 4.549 .139 3.772 .139H.14C.046 .139 0 .093 0 0M6.354-15.675 2.886-7.99C2.848-7.916 2.792-7.879 2.719-7.879H.14C.046-7.879 0-7.925 0-8.018V-15.592C0-15.684-.033-15.762-.097-15.827-.162-15.891-.241-15.924-.332-15.924H-3.578C-3.672-15.924-3.75-15.891-3.813-15.827-3.879-15.762-3.912-15.684-3.912-15.592V3.162C-3.912 3.255-3.879 3.334-3.813 3.397-3.75 3.463-3.672 3.496-3.578 3.496H4.355C5.538 3.496 6.58 3.255 7.477 2.773 8.373 2.292 9.067 1.609 9.557 .722 10.046-.167 10.292-1.192 10.292-2.358 10.292-3.616 9.978-4.693 9.349-5.589 8.72-6.486 7.842-7.12 6.714-7.49 6.62-7.528 6.593-7.592 6.631-7.686L10.403-15.536C10.439-15.609 10.459-15.665 10.459-15.701 10.459-15.851 10.357-15.924 10.152-15.924H6.742C6.557-15.924 6.428-15.841 6.354-15.675" transform="matrix(1,0,0,-1,574.9055,376.8324)"/>
<path data-index="13" fill="#ffffff" d="M0 0C-.065 .065-.099 .144-.099 .235V18.989C-.099 19.082-.065 19.161 0 19.225 .063 19.29 .143 19.323 .235 19.323H3.481C3.573 19.323 3.651 19.29 3.717 19.225 3.781 19.161 3.813 19.082 3.813 18.989V.235C3.813 .144 3.781 .065 3.717 0 3.651-.063 3.573-.097 3.481-.097H.235C.143-.097 .063-.063 0 0" transform="matrix(1,0,0,-1,613.6467,392.6595)"/>
<path data-index="14" fill="#ffffff" d="M0 0C-.064-.065-.143-.097-.236-.097H-9.334C-9.428-.097-9.474-.143-9.474-.235V-4.536C-9.474-4.628-9.428-4.674-9.334-4.674H-3.37C-3.278-4.674-3.2-4.706-3.135-4.771-3.069-4.836-3.038-4.914-3.038-5.008V-7.698C-3.038-7.791-3.069-7.87-3.135-7.934-3.2-7.999-3.278-8.03-3.37-8.03H-9.334C-9.428-8.03-9.474-8.078-9.474-8.17V-12.663C-9.474-12.757-9.428-12.802-9.334-12.802H-.236C-.143-12.802-.064-12.835 0-12.898 .065-12.964 .098-13.043 .098-13.135V-15.827C.098-15.919 .065-15.997 0-16.062-.064-16.126-.143-16.159-.236-16.159H-13.052C-13.145-16.159-13.224-16.126-13.287-16.062-13.353-15.997-13.386-15.919-13.386-15.827V2.927C-13.386 3.02-13.353 3.099-13.287 3.162-13.224 3.228-13.145 3.261-13.052 3.261H-.236C-.143 3.261-.064 3.228 0 3.162 .065 3.099 .098 3.02 .098 2.927V.236C.098 .143 .065 .065 0 0" transform="matrix(1,0,0,-1,659.7522,376.597)"/>
<path data-index="15" fill="#ffffff" d="M0 0C-1.11 .472-1.967 1.148-2.567 2.026-3.169 2.903-3.469 3.927-3.469 5.092V5.702C-3.469 5.794-3.438 5.873-3.372 5.938-3.307 6.002-3.228 6.035-3.136 6.035H.026C.119 6.035 .198 6.002 .262 5.938 .327 5.873 .36 5.794 .36 5.702V5.286C.36 4.546 .702 3.922 1.387 3.413 2.069 2.903 2.995 2.649 4.161 2.649 5.141 2.649 5.87 2.857 6.352 3.275 6.833 3.691 7.072 4.204 7.072 4.814 7.072 5.259 6.925 5.632 6.629 5.938 6.334 6.242 5.931 6.511 5.422 6.742 4.914 6.973 4.105 7.292 2.995 7.7 1.755 8.124 .706 8.56-.154 9.004-1.014 9.447-1.734 10.054-2.317 10.819-2.9 11.588-3.191 12.536-3.191 13.664-3.191 14.774-2.905 15.744-2.332 16.577-1.759 17.409-.963 18.048 .054 18.491 1.071 18.936 2.247 19.156 3.578 19.156 4.983 19.156 6.235 18.907 7.336 18.408 8.437 17.908 9.296 17.209 9.917 16.313 10.536 15.416 10.846 14.376 10.846 13.192V12.776C10.846 12.684 10.814 12.604 10.749 12.541 10.684 12.476 10.606 12.444 10.513 12.444H7.323C7.229 12.444 7.151 12.476 7.087 12.541 7.021 12.604 6.99 12.684 6.99 12.776V12.997C6.99 13.775 6.671 14.436 6.032 14.982 5.396 15.527 4.521 15.8 3.411 15.8 2.541 15.8 1.861 15.614 1.372 15.246 .883 14.874 .637 14.366 .637 13.72 .637 13.256 .779 12.868 1.067 12.554 1.354 12.239 1.778 11.958 2.343 11.709 2.906 11.458 3.781 11.121 4.965 10.695 6.278 10.214 7.309 9.79 8.059 9.42 8.807 9.05 9.481 8.499 10.084 7.769 10.684 7.038 10.984 6.091 10.984 4.925 10.984 3.187 10.346 1.813 9.07 .806 7.795-.203 6.065-.707 3.883-.707 2.403-.707 1.108-.472 0 0" transform="matrix(1,0,0,-1,690.8655,392.2718)"/>
</g>
</g>
</svg>