<svg xmlns="http://www.w3.org/2000/svg" viewBox="203.22851485148516 322.24274810000003 757.3437623762376 260.3340428" id="svg2" version="1.1" style="max-height: 500px" width="757.3437623762376" height="260.3340428">
  <defs id="defs6">
    <clipPath id="clipPath16" clipPathUnits="userSpaceOnUse">
      <path id="path14" d="M 0,595.276 H 841.89 V 0 H 0 Z"/>
    </clipPath>
  </defs>
  <g transform="matrix(1.3333333,0,0,-1.3333333,0,793.70133)" id="g8">
    <g id="g10">
      <g clip-path="url(#clipPath16)" id="g12">
        <g transform="translate(401.8763,231.5608)" id="g18">
          <path id="path20" style="fill:#e73321;fill-opacity:1;fill-rule:nonzero;stroke:none" d="M 0,0 C -0.451,0.448 -0.675,1.067 -0.675,1.854 V 114.79 c 0,0.786 0.224,1.405 0.675,1.855 0.447,0.449 1.066,0.674 1.853,0.674 h 26.633 c 0.785,0 1.405,-0.225 1.854,-0.674 0.449,-0.45 0.676,-1.069 0.676,-1.855 V 74.504 c 0,-0.337 0.11,-0.563 0.337,-0.673 0.223,-0.113 0.447,0 0.672,0.336 l 29.33,41.635 c 0.675,1.011 1.742,1.517 3.204,1.517 h 30.172 c 1.349,0 2.023,-0.506 2.023,-1.517 0,-0.449 -0.168,-0.955 -0.505,-1.516 L 61.188,65.57 c -0.226,-0.337 -0.226,-0.732 0,-1.179 L 97.429,2.36 c 0.337,-0.45 0.506,-0.956 0.506,-1.517 0,-1.011 -0.733,-1.517 -2.192,-1.517 H 65.907 c -1.462,0 -2.473,0.561 -3.034,1.686 L 39.611,42.478 c -0.113,0.337 -0.281,0.505 -0.506,0.505 -0.226,0 -0.45,-0.168 -0.673,-0.505 L 31.353,31.69 C 31.126,31.238 31.016,30.902 31.016,30.679 V 1.854 C 31.016,1.067 30.789,0.448 30.34,0 29.891,-0.45 29.271,-0.674 28.486,-0.674 H 1.853 C 1.066,-0.674 0.447,-0.45 0,0"/>
        </g>
        <g transform="translate(556.969,260.6379)" id="g22">
          <path id="path24" style="fill:#e73321;fill-opacity:1;fill-rule:nonzero;stroke:none" d="m 0,0 c 2.864,3.089 4.298,7.219 4.298,12.39 v 33.037 c 0,5.168 -1.434,9.299 -4.298,12.389 -2.866,3.09 -6.658,4.636 -11.379,4.636 -4.609,0 -8.344,-1.546 -11.21,-4.636 -2.865,-3.09 -4.298,-7.221 -4.298,-12.389 V 12.39 c 0,-5.171 1.433,-9.301 4.298,-12.39 2.866,-3.092 6.601,-4.636 11.21,-4.636 4.721,0 8.513,1.544 11.379,4.636 m -36.073,-26.127 c -7.138,3.764 -12.672,9.045 -16.604,15.845 -3.934,6.797 -5.899,14.691 -5.899,23.682 v 31.69 c 0,8.765 1.965,16.519 5.899,23.263 3.932,6.741 9.466,11.967 16.604,15.675 7.134,3.708 15.366,5.563 24.694,5.563 9.44,0 17.726,-1.855 24.862,-5.563 7.136,-3.708 12.669,-8.934 16.605,-15.675 3.931,-6.744 5.898,-14.498 5.898,-23.263 V 13.4 c 0,-8.991 -1.967,-16.885 -5.898,-23.682 -3.936,-6.8 -9.469,-12.081 -16.605,-15.845 -7.136,-3.765 -15.422,-5.647 -24.862,-5.647 -9.328,0 -17.56,1.882 -24.694,5.647"/>
        </g>
        <g transform="translate(671.3362,348.2053)" id="g26">
          <path id="path28" style="fill:#e73321;fill-opacity:1;fill-rule:nonzero;stroke:none" d="m 0,0 c 0.447,0.449 1.066,0.675 1.854,0.675 h 26.632 c 0.785,0 1.405,-0.226 1.855,-0.675 0.448,-0.449 0.675,-1.068 0.675,-1.854 V -114.79 c 0,-0.787 -0.227,-1.406 -0.675,-1.855 -0.45,-0.45 -1.07,-0.673 -1.855,-0.673 H 3.034 c -1.348,0 -2.36,0.56 -3.034,1.685 l -34.387,57.312 c -0.226,0.337 -0.45,0.475 -0.674,0.421 -0.226,-0.059 -0.337,-0.311 -0.337,-0.76 l 0.337,-56.13 c 0,-0.787 -0.226,-1.406 -0.674,-1.855 -0.451,-0.45 -1.07,-0.673 -1.855,-0.673 h -26.633 c -0.787,0 -1.406,0.223 -1.853,0.673 -0.451,0.449 -0.675,1.068 -0.675,1.855 V -1.854 c 0,0.786 0.224,1.405 0.675,1.854 0.447,0.449 1.066,0.675 1.853,0.675 h 25.453 c 1.349,0 2.361,-0.565 3.035,-1.685 l 34.217,-57.311 c 0.224,-0.339 0.448,-0.481 0.675,-0.422 0.224,0.055 0.337,0.308 0.337,0.759 l -0.169,56.13 c 0,0.786 0.224,1.405 0.675,1.854"/>
        </g>
        <g transform="translate(294.1487,307.4924)" id="g30">
          <path id="path32" style="fill:#e73321;fill-opacity:1;fill-rule:nonzero;stroke:none" d="m 0,0 -32.609,-76.538 h -44.827 l 49.943,113.124 c 1.13,2.56 3.648,4.229 6.448,4.273 l 40.869,0.633 c 2.828,0.044 5.417,-1.578 6.612,-4.14 l 53.054,-113.89 -30.157,0.013 13.984,-67.98 -69.533,111.098 h 26.415 z"/>
        </g>
        <g transform="translate(222.7552,258.0256)" id="g34">
          <path id="path36" style="fill:#e73321;fill-opacity:1;fill-rule:nonzero;stroke:none" d="m 0,0 h -31.872 c -0.565,0 -0.843,0.278 -0.843,0.843 v 87.482 c 0,0.786 -0.225,1.405 -0.675,1.855 -0.449,0.449 -1.068,0.674 -1.854,0.674 h -26.633 c -0.786,0 -1.405,-0.225 -1.852,-0.674 -0.452,-0.45 -0.675,-1.069 -0.675,-1.855 V -24.61 c 0,-0.787 0.223,-1.407 0.675,-1.855 0.447,-0.45 1.066,-0.674 1.852,-0.674 h 49.855 z"/>
        </g>
        <g transform="translate(392.7112,348.2053)" id="g38">
          <path id="path40" style="fill:#e73321;fill-opacity:1;fill-rule:nonzero;stroke:none" d="m 0,0 c -0.45,0.449 -1.069,0.675 -1.854,0.675 h -26.633 c -0.787,0 -1.407,-0.226 -1.854,-0.675 -0.451,-0.449 -0.675,-1.068 -0.675,-1.854 v -77.738 l 17.774,-37.726 h 11.388 c 0.785,0 1.404,0.223 1.854,0.673 0.448,0.449 0.675,1.068 0.675,1.855 V -1.854 C 0.675,-1.068 0.448,-0.449 0,0"/>
        </g>
        <g transform="translate(371.8636,206.5559)" id="g42">
          <path id="path44" style="fill:#3c3c3d;fill-opacity:1;fill-rule:nonzero;stroke:none" d="M 0,0 C 0.481,0.435 0.723,1.03 0.723,1.79 0.723,2.549 0.481,3.145 0,3.578 -0.481,4.014 -1.155,4.23 -2.025,4.23 h -3.439 c -0.094,0 -0.14,-0.045 -0.14,-0.137 v -4.605 c 0,-0.093 0.046,-0.139 0.14,-0.139 h 3.467 C -1.146,-0.651 -0.481,-0.436 0,0 M -5.604,11.888 V 7.56 c 0,-0.092 0.046,-0.138 0.14,-0.138 h 3.245 c 0.87,0 1.545,0.203 2.027,0.609 0.479,0.407 0.719,0.961 0.719,1.665 0,0.721 -0.24,1.29 -0.719,1.706 -0.482,0.416 -1.157,0.624 -2.027,0.624 h -3.245 c -0.094,0 -0.14,-0.046 -0.14,-0.138 M 1.998,5.924 C 3.755,5.017 4.633,3.51 4.633,1.4 c 0,-1.793 -0.61,-3.147 -1.83,-4.062 -1.221,-0.916 -2.821,-1.374 -4.8,-1.374 h -7.185 c -0.092,0 -0.172,0.033 -0.235,0.097 -0.065,0.065 -0.099,0.143 -0.099,0.235 V 15.05 c 0,0.093 0.034,0.172 0.099,0.235 0.063,0.066 0.143,0.099 0.235,0.099 h 6.963 c 4.384,0 6.575,-1.778 6.575,-5.327 0,-1.849 -0.786,-3.172 -2.358,-3.968 -0.111,-0.054 -0.111,-0.11 0,-0.165"/>
        </g>
        <g transform="translate(409.1761,208.6506)" id="g46">
          <path id="path48" style="fill:#3c3c3d;fill-opacity:1;fill-rule:nonzero;stroke:none" d="M 0,0 H 4.883 C 4.994,0 5.03,0.056 4.994,0.167 L 2.497,8.405 C 2.479,8.479 2.451,8.512 2.413,8.502 2.377,8.494 2.35,8.461 2.33,8.405 L -0.11,0.167 C -0.13,0.056 -0.092,0 0,0 m 6.825,-5.854 -0.832,2.72 c -0.038,0.073 -0.084,0.11 -0.139,0.11 h -6.826 c -0.053,0 -0.101,-0.037 -0.137,-0.11 l -0.806,-2.72 c -0.054,-0.185 -0.175,-0.277 -0.36,-0.277 h -3.523 c -0.111,0 -0.194,0.033 -0.25,0.097 -0.056,0.065 -0.063,0.162 -0.028,0.291 l 5.994,18.754 c 0.054,0.184 0.175,0.278 0.36,0.278 h 4.356 c 0.183,0 0.304,-0.094 0.36,-0.278 l 5.992,-18.754 c 0.018,-0.037 0.028,-0.083 0.028,-0.139 0,-0.166 -0.102,-0.249 -0.305,-0.249 H 7.186 c -0.186,0 -0.305,0.092 -0.361,0.277"/>
        </g>
        <g transform="translate(459.4026,221.8411)" id="g50">
          <path id="path52" style="fill:#3c3c3d;fill-opacity:1;fill-rule:nonzero;stroke:none" d="M 0,0 C 0.063,-0.063 0.097,-0.143 0.097,-0.235 V -2.954 C 0.097,-3.046 0.063,-3.124 0,-3.189 -0.065,-3.255 -0.145,-3.286 -0.236,-3.286 h -4.966 c -0.092,0 -0.138,-0.046 -0.138,-0.14 v -15.563 c 0,-0.092 -0.033,-0.17 -0.098,-0.236 -0.064,-0.063 -0.143,-0.096 -0.236,-0.096 H -8.92 c -0.092,0 -0.17,0.033 -0.235,0.096 -0.065,0.066 -0.097,0.144 -0.097,0.236 v 15.563 c 0,0.094 -0.046,0.14 -0.14,0.14 h -4.826 c -0.093,0 -0.172,0.031 -0.235,0.097 -0.066,0.065 -0.099,0.143 -0.099,0.235 v 2.719 c 0,0.092 0.033,0.172 0.099,0.235 0.063,0.065 0.142,0.099 0.235,0.099 H -0.236 C -0.145,0.099 -0.065,0.065 0,0"/>
        </g>
        <g transform="translate(501.1555,221.8411)" id="g54">
          <path id="path56" style="fill:#3c3c3d;fill-opacity:1;fill-rule:nonzero;stroke:none" d="M 0,0 C 0.063,-0.063 0.097,-0.143 0.097,-0.235 V -2.954 C 0.097,-3.046 0.063,-3.124 0,-3.189 -0.065,-3.255 -0.145,-3.286 -0.236,-3.286 h -4.967 c -0.092,0 -0.138,-0.046 -0.138,-0.14 v -15.563 c 0,-0.092 -0.032,-0.17 -0.097,-0.236 -0.065,-0.063 -0.143,-0.096 -0.237,-0.096 H -8.92 c -0.092,0 -0.171,0.033 -0.236,0.096 -0.064,0.066 -0.097,0.144 -0.097,0.236 v 15.563 c 0,0.094 -0.046,0.14 -0.139,0.14 h -4.826 c -0.093,0 -0.172,0.031 -0.235,0.097 -0.066,0.065 -0.099,0.143 -0.099,0.235 v 2.719 c 0,0.092 0.033,0.172 0.099,0.235 0.063,0.065 0.142,0.099 0.235,0.099 H -0.236 C -0.145,0.099 -0.065,0.065 0,0"/>
        </g>
        <g transform="translate(542.6555,218.679)" id="g58">
          <path id="path60" style="fill:#3c3c3d;fill-opacity:1;fill-rule:nonzero;stroke:none" d="m 0,0 c -0.063,-0.065 -0.143,-0.097 -0.235,-0.097 h -9.099 c -0.094,0 -0.14,-0.046 -0.14,-0.138 v -4.301 c 0,-0.092 0.046,-0.138 0.14,-0.138 h 5.964 c 0.092,0 0.17,-0.032 0.236,-0.097 0.066,-0.065 0.097,-0.143 0.097,-0.237 v -2.69 c 0,-0.093 -0.031,-0.172 -0.097,-0.236 C -3.2,-7.999 -3.278,-8.03 -3.37,-8.03 h -5.964 c -0.094,0 -0.14,-0.048 -0.14,-0.14 v -4.493 c 0,-0.094 0.046,-0.139 0.14,-0.139 h 9.099 c 0.092,0 0.172,-0.033 0.235,-0.096 0.065,-0.066 0.099,-0.145 0.099,-0.237 v -2.692 c 0,-0.092 -0.034,-0.17 -0.099,-0.235 -0.063,-0.064 -0.143,-0.097 -0.235,-0.097 h -12.816 c -0.094,0 -0.173,0.033 -0.236,0.097 -0.066,0.065 -0.099,0.143 -0.099,0.235 V 2.927 c 0,0.093 0.033,0.172 0.099,0.235 0.063,0.066 0.142,0.099 0.236,0.099 H -0.235 C -0.143,3.261 -0.063,3.228 0,3.162 0.065,3.099 0.099,3.02 0.099,2.927 V 0.236 C 0.099,0.143 0.065,0.065 0,0"/>
        </g>
        <g transform="translate(574.9055,218.4436)" id="g62">
          <path id="path64" style="fill:#3c3c3d;fill-opacity:1;fill-rule:nonzero;stroke:none" d="m 0,0 v -4.744 c 0,-0.092 0.046,-0.138 0.14,-0.138 h 3.632 c 0.777,0 1.411,0.231 1.902,0.693 0.49,0.461 0.734,1.063 0.734,1.803 0,0.74 -0.244,1.346 -0.734,1.818 C 5.183,-0.097 4.549,0.139 3.772,0.139 H 0.14 C 0.046,0.139 0,0.093 0,0 M 6.354,-15.675 2.886,-7.99 C 2.848,-7.916 2.792,-7.879 2.719,-7.879 H 0.14 C 0.046,-7.879 0,-7.925 0,-8.018 v -7.574 c 0,-0.092 -0.033,-0.17 -0.097,-0.235 -0.065,-0.064 -0.144,-0.097 -0.235,-0.097 h -3.246 c -0.094,0 -0.172,0.033 -0.235,0.097 -0.066,0.065 -0.099,0.143 -0.099,0.235 V 3.162 c 0,0.093 0.033,0.172 0.099,0.235 0.063,0.066 0.141,0.099 0.235,0.099 h 7.933 c 1.183,0 2.225,-0.241 3.122,-0.723 0.896,-0.481 1.59,-1.164 2.08,-2.051 0.489,-0.889 0.735,-1.914 0.735,-3.08 0,-1.258 -0.314,-2.335 -0.943,-3.231 C 8.72,-6.486 7.842,-7.12 6.714,-7.49 6.62,-7.528 6.593,-7.592 6.631,-7.686 l 3.772,-7.85 c 0.036,-0.073 0.056,-0.129 0.056,-0.165 0,-0.15 -0.102,-0.223 -0.307,-0.223 h -3.41 c -0.185,0 -0.314,0.083 -0.388,0.249"/>
        </g>
        <g transform="translate(613.6467,202.6165)" id="g66">
          <path id="path68" style="fill:#3c3c3d;fill-opacity:1;fill-rule:nonzero;stroke:none" d="m 0,0 c -0.065,0.065 -0.099,0.144 -0.099,0.235 v 18.754 c 0,0.093 0.034,0.172 0.099,0.236 0.063,0.065 0.143,0.098 0.235,0.098 h 3.246 c 0.092,0 0.17,-0.033 0.236,-0.098 0.064,-0.064 0.096,-0.143 0.096,-0.236 V 0.235 C 3.813,0.144 3.781,0.065 3.717,0 3.651,-0.063 3.573,-0.097 3.481,-0.097 H 0.235 C 0.143,-0.097 0.063,-0.063 0,0"/>
        </g>
        <g transform="translate(659.7522,218.679)" id="g70">
          <path id="path72" style="fill:#3c3c3d;fill-opacity:1;fill-rule:nonzero;stroke:none" d="m 0,0 c -0.064,-0.065 -0.143,-0.097 -0.236,-0.097 h -9.098 c -0.094,0 -0.14,-0.046 -0.14,-0.138 v -4.301 c 0,-0.092 0.046,-0.138 0.14,-0.138 h 5.964 c 0.092,0 0.17,-0.032 0.235,-0.097 0.066,-0.065 0.097,-0.143 0.097,-0.237 v -2.69 c 0,-0.093 -0.031,-0.172 -0.097,-0.236 C -3.2,-7.999 -3.278,-8.03 -3.37,-8.03 h -5.964 c -0.094,0 -0.14,-0.048 -0.14,-0.14 v -4.493 c 0,-0.094 0.046,-0.139 0.14,-0.139 h 9.098 c 0.093,0 0.172,-0.033 0.236,-0.096 0.065,-0.066 0.098,-0.145 0.098,-0.237 v -2.692 c 0,-0.092 -0.033,-0.17 -0.098,-0.235 -0.064,-0.064 -0.143,-0.097 -0.236,-0.097 h -12.816 c -0.093,0 -0.172,0.033 -0.235,0.097 -0.066,0.065 -0.099,0.143 -0.099,0.235 V 2.927 c 0,0.093 0.033,0.172 0.099,0.235 0.063,0.066 0.142,0.099 0.235,0.099 H -0.236 C -0.143,3.261 -0.064,3.228 0,3.162 0.065,3.099 0.098,3.02 0.098,2.927 V 0.236 C 0.098,0.143 0.065,0.065 0,0"/>
        </g>
        <g transform="translate(690.8655,203.0042)" id="g74">
          <path id="path76" style="fill:#3c3c3d;fill-opacity:1;fill-rule:nonzero;stroke:none" d="m 0,0 c -1.11,0.472 -1.967,1.148 -2.567,2.026 -0.602,0.877 -0.902,1.901 -0.902,3.066 v 0.61 c 0,0.092 0.031,0.171 0.097,0.236 0.065,0.064 0.144,0.097 0.236,0.097 H 0.026 C 0.119,6.035 0.198,6.002 0.262,5.938 0.327,5.873 0.36,5.794 0.36,5.702 V 5.286 c 0,-0.74 0.342,-1.364 1.027,-1.873 0.682,-0.51 1.608,-0.764 2.774,-0.764 0.98,0 1.709,0.208 2.191,0.626 0.481,0.416 0.72,0.929 0.72,1.539 0,0.445 -0.147,0.818 -0.443,1.124 C 6.334,6.242 5.931,6.511 5.422,6.742 4.914,6.973 4.105,7.292 2.995,7.7 1.755,8.124 0.706,8.56 -0.154,9.004 c -0.86,0.443 -1.58,1.05 -2.163,1.815 -0.583,0.769 -0.874,1.717 -0.874,2.845 0,1.11 0.286,2.08 0.859,2.913 0.573,0.832 1.369,1.471 2.386,1.914 1.017,0.445 2.193,0.665 3.524,0.665 1.405,0 2.657,-0.249 3.758,-0.748 1.101,-0.5 1.96,-1.199 2.581,-2.095 0.619,-0.897 0.929,-1.937 0.929,-3.121 v -0.416 c 0,-0.092 -0.032,-0.172 -0.097,-0.235 -0.065,-0.065 -0.143,-0.097 -0.236,-0.097 h -3.19 c -0.094,0 -0.172,0.032 -0.236,0.097 -0.066,0.063 -0.097,0.143 -0.097,0.235 v 0.221 c 0,0.778 -0.319,1.439 -0.958,1.985 C 5.396,15.527 4.521,15.8 3.411,15.8 2.541,15.8 1.861,15.614 1.372,15.246 0.883,14.874 0.637,14.366 0.637,13.72 c 0,-0.464 0.142,-0.852 0.43,-1.166 C 1.354,12.239 1.778,11.958 2.343,11.709 2.906,11.458 3.781,11.121 4.965,10.695 6.278,10.214 7.309,9.79 8.059,9.42 8.807,9.05 9.481,8.499 10.084,7.769 c 0.6,-0.731 0.9,-1.678 0.9,-2.844 C 10.984,3.187 10.346,1.813 9.07,0.806 7.795,-0.203 6.065,-0.707 3.883,-0.707 2.403,-0.707 1.108,-0.472 0,0"/>
        </g>
      </g>
    </g>
  </g>
</svg>